<svg version="1.1" id="Layer_1" xmlns="http://www.w3.org/2000/svg" xmlns:xlink="http://www.w3.org/1999/xlink" x="0px" y="0px"
	 width="100%" viewBox="0 0 300 90" enable-background="new 0 0 300 90" xml:space="preserve">
<path fill="#49714E" opacity="1.000000" stroke="none" 
	d="
M193.000000,91.000000 
	C128.666687,91.000000 64.833374,91.000000 1.000043,91.000000 
	C1.000029,61.000027 1.000029,31.000055 1.000014,1.000063 
	C100.999939,1.000042 200.999878,1.000042 300.999878,1.000021 
	C300.999908,30.999933 300.999908,60.999866 300.999939,90.999901 
	C265.166656,91.000000 229.333328,91.000000 193.000000,91.000000 
M178.995926,48.831524 
	C183.489777,48.886131 188.001434,49.221798 192.473846,48.938297 
	C202.565125,48.298626 207.670959,43.169365 208.756699,36.565796 
	C210.518005,25.853392 206.956207,19.918518 198.726105,17.539320 
	C192.309525,15.684387 185.039398,16.782137 177.881927,16.418631 
	C177.881927,16.418631 177.812943,16.786915 177.812943,16.786915 
	C177.812943,16.786915 178.162537,16.711132 178.024109,17.676048 
	C178.069931,27.883919 178.115738,38.091789 177.919846,48.103165 
	C177.919846,48.103165 177.785873,48.452587 177.785873,48.452587 
	C177.785873,48.452587 178.145767,48.460827 178.995926,48.831524 
M32.937050,50.188961 
	C32.454617,52.381863 31.972185,54.574768 31.606977,56.234810 
	C29.903624,56.623241 28.469101,56.950367 25.840574,57.549770 
	C28.334967,58.833904 29.551617,59.460247 30.701906,60.052425 
	C30.105324,64.057983 29.286016,67.759453 29.077528,71.495003 
	C28.891211,74.833305 27.777662,76.333359 24.261110,76.047417 
	C21.910915,75.856323 19.513092,76.250992 17.136581,76.383530 
	C22.964491,79.519150 69.332550,78.848923 72.155220,76.339172 
	C69.266846,76.101852 66.719795,75.892570 63.434460,75.622635 
	C64.984146,71.962540 66.328690,68.786949 67.805000,65.300171 
	C63.398193,61.995926 69.041916,57.587852 68.051407,53.529972 
	C69.630417,53.024559 70.879913,52.624615 72.915924,51.972919 
	C65.462578,47.511047 71.585732,42.798645 71.072983,38.836220 
	C72.685020,38.262173 73.918388,37.822971 75.151749,37.383774 
	C74.230736,36.633854 73.245445,35.171925 72.399025,35.248329 
	C66.429070,35.787224 66.623726,32.422901 68.083008,28.530537 
	C68.888794,26.381256 67.439178,22.429079 72.055191,22.768492 
	C72.312538,22.787416 72.959732,21.440880 72.888260,21.381992 
	C72.227570,20.837690 71.500778,20.230932 70.695755,20.026995 
	C64.027008,18.337585 57.356956,16.643135 50.644604,15.141004 
	C47.935249,14.534688 45.119587,14.403419 40.877483,13.870786 
	C47.666710,19.500652 42.896549,24.177071 42.728653,29.077238 
	C39.591866,28.613901 36.947292,28.223270 33.720901,27.746698 
	C37.250423,33.008549 35.651737,40.000103 31.426516,42.958973 
	C31.999353,45.297421 32.492943,47.312355 32.937050,50.188961 
M173.027054,27.632147 
	C173.496078,20.445850 172.412079,18.395142 165.206497,17.040302 
	C159.308105,15.931252 153.179901,16.044571 147.013702,15.606050 
	C147.013702,27.233477 147.013702,38.037243 147.013702,48.664978 
	C149.624115,48.664978 151.870224,48.664978 154.645172,48.664978 
	C154.645172,44.090797 154.645172,39.837933 154.645172,35.660866 
	C158.555313,34.565075 160.075821,36.282986 161.271210,39.227230 
	C165.410568,49.422470 167.449402,50.615425 175.332672,48.195316 
	C172.873367,43.708755 170.394928,39.187271 168.086304,34.975609 
	C169.759064,32.738895 171.383377,30.566948 173.027054,27.632147 
M95.286926,15.995266 
	C91.555153,15.995266 87.823380,15.995266 84.523102,15.995266 
	C84.523102,27.381149 84.523102,37.964714 84.523102,48.834743 
	C87.318802,48.834743 89.708321,48.834743 92.166641,48.834743 
	C92.166641,46.802563 92.166649,44.977848 92.166649,43.153133 
	C92.166649,41.227158 92.166641,39.301186 92.166641,37.077385 
	C95.749214,37.077385 98.830528,37.348064 101.846268,37.018608 
	C107.387459,36.413254 111.561119,32.207535 111.943886,27.302553 
	C112.377708,21.743340 109.169067,17.980808 102.569748,16.596731 
	C100.493187,16.161211 98.320770,16.182699 95.286926,15.995266 
M252.193680,48.776863 
	C253.129715,48.086510 254.868317,47.410168 254.880646,46.703690 
	C255.048904,37.062954 255.013046,27.417618 254.891708,17.775127 
	C254.883286,17.106667 253.801620,16.451712 253.219055,15.790477 
	C252.831726,15.956378 252.444382,16.122278 252.057037,16.288179 
	C252.057037,22.800861 252.057037,29.313545 252.057037,36.311680 
	C250.817688,35.716431 250.114410,35.577629 249.709320,35.153820 
	C244.770630,29.986712 239.995865,24.655817 234.907272,19.642780 
	C233.012024,17.775667 230.409668,16.626318 227.570923,14.787717 
	C227.570923,27.087650 227.570923,37.940163 227.570923,48.792679 
	C228.024094,48.799152 228.477280,48.805630 228.930450,48.812103 
	C228.930450,41.396210 228.930450,33.980320 228.930450,25.635405 
	C237.060913,33.764481 244.319855,41.022198 252.193680,48.776863 
M112.876862,48.195061 
	C113.898300,47.712009 115.721085,47.350243 115.815437,46.726879 
	C116.629822,41.345806 119.963249,40.334885 124.664734,40.929665 
	C126.948936,41.218639 129.299927,40.979614 131.402924,40.979614 
	C132.809174,43.836914 134.075912,46.410755 135.162796,48.619141 
	C138.289200,48.619141 141.001160,48.619141 144.112366,48.619141 
	C139.542404,38.105335 135.223450,28.040836 130.734253,18.052860 
	C130.316940,17.124390 128.856659,16.241024 127.812523,16.153952 
	C126.998413,16.086063 125.643906,17.099644 125.271858,17.955366 
	C121.020348,27.733856 116.911316,37.574295 112.876862,48.195061 
M263.294250,49.000107 
	C264.862396,48.902630 266.430542,48.805157 267.769989,48.721893 
	C267.769989,37.496361 267.769989,26.912340 267.769989,16.204687 
	C265.056885,16.204687 262.632294,16.204687 260.112823,16.204687 
	C260.112823,26.046480 260.028839,35.662479 260.215118,45.273232 
	C260.239441,46.527996 261.652710,47.755836 263.294250,49.000107 
M220.996918,27.520916 
	C220.996918,23.752785 220.996918,19.984655 220.996918,16.382542 
	C217.954483,16.382542 215.563965,16.382542 213.240601,16.382542 
	C213.240601,27.361881 213.240601,37.964149 213.240601,48.686520 
	C215.868866,48.686520 218.255386,48.686520 220.996918,48.686520 
	C220.996918,41.776909 220.996918,35.145157 220.996918,27.520916 
M224.536407,60.103283 
	C223.008072,59.027744 221.479736,57.952206 219.951401,56.876671 
	C219.446808,58.827557 218.637482,60.757988 218.504852,62.733837 
	C218.271744,66.207207 218.303345,69.718285 218.534241,73.192955 
	C218.625244,74.562515 219.547592,75.876846 220.091370,77.216331 
	C220.505295,77.077385 220.919205,76.938438 221.333130,76.799500 
	C221.333130,72.619118 221.333130,68.438736 221.333130,63.633011 
	C227.399368,67.061264 228.793182,74.962448 235.792206,77.208900 
	C235.792206,69.931198 235.792206,63.475567 235.792206,55.615978 
	C230.252670,59.605820 234.683289,65.403488 231.755707,69.138016 
	C229.394196,66.222855 227.156876,63.461002 224.536407,60.103283 
M136.648102,58.634399 
	C131.614639,57.794876 126.581169,56.955349 121.254913,56.066990 
	C121.254913,63.691902 121.254913,70.084602 121.254913,76.802696 
	C127.612396,76.766579 134.359055,78.820015 138.486481,72.270264 
	C141.234787,67.909027 141.024734,63.180061 136.648102,58.634399 
M182.210159,76.215775 
	C188.833450,72.519608 190.580963,68.558937 188.195679,62.649784 
	C185.982651,57.167366 179.988342,55.396236 170.514145,57.563046 
	C170.514145,63.879631 170.514145,70.256874 170.514145,76.770004 
	C174.355453,76.770004 177.969131,76.770004 182.210159,76.215775 
M205.182800,72.016113 
	C206.483002,72.943436 207.793991,73.856110 209.080002,74.802696 
	C210.116928,75.565926 211.123688,76.370125 212.143829,77.156151 
	C212.561111,76.791550 212.978378,76.426941 213.395660,76.062340 
	C210.701675,70.009056 208.105560,63.906910 205.148590,57.984940 
	C204.879669,57.446350 201.295685,57.544926 200.939758,58.227783 
	C197.887741,64.083160 195.225052,70.141457 192.446014,76.139122 
	C192.787491,76.469429 193.128967,76.799744 193.470459,77.130058 
	C194.546402,76.703690 196.440567,76.445541 196.568314,75.824219 
	C197.551208,71.043610 201.153778,72.069405 205.182800,72.016113 
M160.964157,67.579315 
	C159.443298,64.515297 158.136993,61.307941 156.252319,58.486988 
	C155.774918,57.772430 152.431747,57.757801 152.138229,58.322403 
	C149.102676,64.161377 146.422562,70.185143 143.643555,76.157501 
	C144.239120,76.586563 144.834686,77.015617 145.430252,77.444679 
	C146.946579,75.783875 148.462906,74.123070 150.272141,72.141449 
	C152.629395,72.141449 155.592621,72.141449 157.638992,72.141449 
	C159.710068,74.244431 161.266724,75.825066 162.823380,77.405693 
	C163.343613,77.012573 163.863846,76.619446 164.384064,76.226326 
	C163.279053,73.598595 162.174026,70.970863 160.964157,67.579315 
M267.855255,72.134384 
	C269.136047,73.859459 270.416870,75.584541 271.697662,77.309624 
	C272.286987,76.928909 272.876343,76.548203 273.465668,76.167488 
	C270.865448,70.083305 268.377625,63.944332 265.481750,58.004288 
	C265.208435,57.443672 261.272736,57.582066 260.896729,58.330303 
	C257.951294,64.191559 255.460098,70.281052 252.828812,76.300156 
	C253.339920,76.680336 253.851013,77.060516 254.362122,77.440689 
	C255.902039,75.844849 257.441956,74.249008 259.581512,72.031754 
	C261.365509,72.031754 264.178314,72.031754 267.855255,72.134384 
M85.519608,70.971512 
	C88.387375,76.926826 94.668091,79.016907 99.943146,75.640160 
	C100.869576,75.047119 101.391846,73.822731 102.100769,72.889908 
	C100.837746,72.805222 99.132385,72.151825 98.386475,72.731995 
	C94.698547,75.600433 91.875626,73.108009 89.721565,71.004509 
	C87.299271,68.639069 87.497780,65.231750 89.672531,62.473740 
	C91.991386,59.533001 95.021248,59.002468 98.408546,60.670418 
	C99.377205,61.147396 100.373238,61.568771 102.791504,62.667576 
	C101.803429,60.073898 101.589142,57.862827 100.753281,57.595547 
	C96.581604,56.261562 92.313667,55.219311 88.361786,58.643845 
	C84.587837,61.914207 83.845795,65.826782 85.519608,70.971512 
M245.392960,56.829903 
	C244.948547,57.191101 244.121323,57.547466 244.116699,57.914230 
	C244.037369,64.194542 244.059723,70.476143 244.059723,76.757454 
	C244.596527,76.988800 245.133331,77.220139 245.670135,77.451477 
	C246.440353,76.292770 247.812149,75.165741 247.875137,73.969788 
	C248.128815,69.153915 248.060165,64.314072 247.902481,59.489883 
	C247.873474,58.601891 246.878342,57.745480 245.392960,56.829903 
M109.754128,72.803497 
	C109.854477,74.159912 109.954834,75.516319 110.160568,78.297226 
	C111.683563,76.512650 112.838150,75.789368 112.860336,75.032867 
	C113.019753,69.596878 113.005539,64.152794 112.873718,58.715469 
	C112.858856,58.102482 111.768143,57.515579 111.176323,56.916576 
	C110.709129,57.634926 109.860603,58.341270 109.837547,59.073601 
	C109.702744,63.356422 109.761139,67.645325 109.754128,72.803497 
z"/>
<path fill="#F6F6F6" opacity="1.000000" stroke="none" 
	d="
M32.961792,49.758125 
	C32.492943,47.312355 31.999353,45.297421 31.426516,42.958973 
	C35.651737,40.000103 37.250423,33.008549 33.720901,27.746698 
	C36.947292,28.223270 39.591866,28.613901 42.728653,29.077238 
	C42.896549,24.177071 47.666710,19.500652 40.877483,13.870786 
	C45.119587,14.403419 47.935249,14.534688 50.644604,15.141004 
	C57.356956,16.643135 64.027008,18.337585 70.695755,20.026995 
	C71.500778,20.230932 72.227570,20.837690 72.888260,21.381992 
	C72.959732,21.440880 72.312538,22.787416 72.055191,22.768492 
	C67.439178,22.429079 68.888794,26.381256 68.083008,28.530537 
	C66.623726,32.422901 66.429070,35.787224 72.399025,35.248329 
	C73.245445,35.171925 74.230736,36.633854 75.151749,37.383774 
	C73.918388,37.822971 72.685020,38.262173 71.072983,38.836220 
	C71.585732,42.798645 65.462578,47.511047 72.915924,51.972919 
	C70.879913,52.624615 69.630417,53.024559 68.051407,53.529972 
	C69.041916,57.587852 63.398193,61.995926 67.805000,65.300171 
	C66.328690,68.786949 64.984146,71.962540 63.434460,75.622635 
	C66.719795,75.892570 69.266846,76.101852 72.155220,76.339172 
	C69.332550,78.848923 22.964491,79.519150 17.136581,76.383530 
	C19.513092,76.250992 21.910915,75.856323 24.261110,76.047417 
	C27.777662,76.333359 28.891211,74.833305 29.077528,71.495003 
	C29.286016,67.759453 30.105324,64.057983 30.701906,60.052425 
	C29.551617,59.460247 28.334967,58.833904 25.840574,57.549770 
	C28.469101,56.950367 29.903624,56.623241 31.606977,56.234810 
	C31.972185,54.574768 32.454617,52.381863 32.961792,49.758125 
M49.994160,73.516083 
	C50.459820,70.795876 51.848595,68.062798 54.715355,69.275986 
	C56.781063,70.150169 57.935570,73.177521 59.986675,75.893547 
	C64.481750,74.617867 60.525036,69.262505 63.375813,66.469902 
	C53.196407,64.358414 43.670349,62.382450 33.739025,60.322426 
	C32.843319,65.462654 31.979116,70.422112 30.825623,77.041733 
	C32.944912,75.635162 34.349239,75.055832 35.203873,74.022064 
	C35.864025,73.223541 35.495213,71.538643 36.180222,70.803505 
	C37.817886,69.046005 39.807621,67.616570 41.655209,66.054680 
	C42.764519,68.000786 44.070675,69.867210 44.903812,71.925117 
	C45.350384,73.028175 44.983139,74.460693 44.983139,76.839462 
	C47.058464,75.774132 48.492729,75.037872 49.994160,73.516083 
M64.096359,45.269699 
	C64.183434,46.491589 64.270515,47.713478 64.357590,48.935368 
	C64.818565,48.921837 65.279549,48.908310 65.740524,48.894779 
	C66.591713,45.149326 67.442894,41.403877 68.357811,37.378002 
	C58.399250,35.316799 49.019070,33.375301 39.737949,31.454311 
	C36.063217,40.856140 36.358337,43.100063 41.055485,43.643810 
	C43.817371,35.000458 44.500893,33.885609 48.015099,35.133915 
	C53.745144,37.169327 49.913353,42.083488 50.558342,45.749138 
	C51.901031,46.083950 53.271912,46.425797 54.786667,46.803520 
	C55.272827,44.533176 55.562012,42.399841 56.203178,40.378132 
	C57.090511,37.580227 61.351517,36.495567 63.002800,38.821213 
	C64.036766,40.277439 63.947292,42.531349 64.096359,45.269699 
M51.532413,48.958988 
	C46.584610,47.928741 41.636810,46.898495 36.471893,45.823040 
	C35.954281,48.406239 35.189220,50.770569 35.105370,53.158813 
	C35.050350,54.725910 35.979694,56.327564 36.468193,57.913742 
	C37.334320,56.623631 38.058262,55.202408 39.099205,54.073486 
	C40.746746,52.286709 42.503597,49.455006 44.399483,49.297623 
	C47.664070,49.026630 48.299915,52.133110 47.973011,55.046349 
	C47.809895,56.499989 47.615429,57.950115 47.390800,59.758911 
	C48.581371,60.159985 49.931293,60.614738 51.486641,61.138695 
	C52.031559,59.585648 52.843208,58.233879 52.929985,56.837074 
	C53.152035,53.262676 55.006660,51.482750 58.371292,52.112560 
	C61.945671,52.781631 62.178909,55.724606 61.748043,58.744137 
	C61.552391,60.115299 61.386524,61.490707 61.207146,62.864193 
	C61.679108,62.967468 62.151070,63.070740 62.623028,63.174015 
	C63.273422,61.587124 64.069061,60.042664 64.547394,58.405499 
	C66.072243,53.186455 65.288422,52.010895 59.996181,50.906696 
	C57.440166,50.373398 54.916248,49.686241 51.532413,48.958988 
M60.054718,29.843424 
	C60.662273,30.909834 61.269825,31.976242 61.877377,33.042648 
	C62.842564,32.349979 64.440773,31.814432 64.658730,30.936302 
	C65.429184,27.832184 65.727287,24.610821 66.183800,21.571445 
	C59.844048,20.197481 54.165539,18.966825 48.213009,17.676781 
	C47.192097,22.118923 46.308804,25.962269 45.394199,29.941868 
	C47.425564,30.036488 49.052803,30.112286 50.190956,30.165300 
	C53.150150,27.357861 51.419098,20.869987 57.333961,21.997723 
	C58.735817,22.265003 59.360332,26.609344 60.054718,29.843424 
M54.820930,61.375706 
	C55.937263,61.085468 57.886551,61.003441 58.020485,60.467632 
	C58.505981,58.525383 58.382454,56.430904 58.488716,54.393860 
	C57.882202,54.344185 57.275688,54.294514 56.669178,54.244839 
	C56.071922,56.378262 55.474670,58.511688 54.820930,61.375706 
z"/>
<path fill="#F7F7F7" opacity="1.000000" stroke="none" 
	d="
M173.017365,28.013575 
	C171.383377,30.566948 169.759064,32.738895 168.086304,34.975609 
	C170.394928,39.187271 172.873367,43.708755 175.332672,48.195316 
	C167.449402,50.615425 165.410568,49.422470 161.271210,39.227230 
	C160.075821,36.282986 158.555313,34.565075 154.645172,35.660866 
	C154.645172,39.837933 154.645172,44.090797 154.645172,48.664978 
	C151.870224,48.664978 149.624115,48.664978 147.013702,48.664978 
	C147.013702,38.037243 147.013702,27.233477 147.013702,15.606050 
	C153.179901,16.044571 159.308105,15.931252 165.206497,17.040302 
	C172.412079,18.395142 173.496078,20.445850 173.017365,28.013575 
M155.380844,32.999973 
	C158.199600,32.171501 162.635330,32.102184 163.463150,30.338974 
	C164.747284,27.603792 164.513351,23.236298 163.113037,20.480539 
	C162.164215,18.613333 158.111450,18.323380 154.765182,17.073338 
	C154.765182,23.120592 154.765182,27.699053 155.380844,32.999973 
z"/>
<path fill="#FAFAFA" opacity="1.000000" stroke="none" 
	d="
M178.148575,16.567736 
	C185.039398,16.782137 192.309525,15.684387 198.726105,17.539320 
	C206.956207,19.918518 210.518005,25.853392 208.756699,36.565796 
	C207.670959,43.169365 202.565125,48.298626 192.473846,48.938297 
	C188.001434,49.221798 183.489777,48.886131 178.610458,48.609253 
	C178.224991,48.386986 178.161560,48.299660 178.161560,48.299660 
	C178.115738,38.091789 178.069931,27.883919 178.121460,17.154640 
	C178.218826,16.633230 178.148575,16.567736 178.148575,16.567736 
M198.128082,23.465172 
	C195.269913,19.116776 191.434799,17.151846 186.142975,18.301325 
	C186.142975,27.953505 186.142975,37.324966 186.142975,46.665173 
	C194.402603,47.458187 198.793182,44.686588 199.874390,36.853363 
	C200.445892,32.712906 199.118835,28.310396 198.128082,23.465172 
z"/>
<path fill="#F7F7F7" opacity="1.000000" stroke="none" 
	d="
M95.739578,15.995142 
	C98.320770,16.182699 100.493187,16.161211 102.569748,16.596731 
	C109.169067,17.980808 112.377708,21.743340 111.943886,27.302553 
	C111.561119,32.207535 107.387459,36.413254 101.846268,37.018608 
	C98.830528,37.348064 95.749214,37.077385 92.166641,37.077385 
	C92.166641,39.301186 92.166649,41.227158 92.166649,43.153133 
	C92.166649,44.977848 92.166641,46.802563 92.166641,48.834743 
	C89.708321,48.834743 87.318802,48.834743 84.523102,48.834743 
	C84.523102,37.964714 84.523102,27.381149 84.523102,15.995266 
	C87.823380,15.995266 91.555153,15.995266 95.739578,15.995142 
M99.899269,19.327244 
	C97.525398,18.751972 95.151520,18.176702 92.361481,17.500582 
	C92.361481,24.122532 92.361481,29.708551 92.361481,35.252575 
	C96.122482,34.724670 100.221214,35.855801 102.310524,30.772520 
	C104.121223,26.367079 103.738869,22.974972 99.899269,19.327244 
z"/>
<path fill="#F8F8F8" opacity="1.000000" stroke="none" 
	d="
M251.886230,48.528389 
	C244.319855,41.022198 237.060913,33.764481 228.930450,25.635405 
	C228.930450,33.980320 228.930450,41.396210 228.930450,48.812103 
	C228.477280,48.805630 228.024094,48.799152 227.570923,48.792679 
	C227.570923,37.940163 227.570923,27.087650 227.570923,14.787717 
	C230.409668,16.626318 233.012024,17.775667 234.907272,19.642780 
	C239.995865,24.655817 244.770630,29.986712 249.709320,35.153820 
	C250.114410,35.577629 250.817688,35.716431 252.057037,36.311680 
	C252.057037,29.313545 252.057037,22.800861 252.057037,16.288179 
	C252.444382,16.122278 252.831726,15.956378 253.219055,15.790477 
	C253.801620,16.451712 254.883286,17.106667 254.891708,17.775127 
	C255.013046,27.417618 255.048904,37.062954 254.880646,46.703690 
	C254.868317,47.410168 253.129715,48.086510 251.886230,48.528389 
z"/>
<path fill="#FAFAFA" opacity="1.000000" stroke="none" 
	d="
M112.820564,47.796631 
	C116.911316,37.574295 121.020348,27.733856 125.271858,17.955366 
	C125.643906,17.099644 126.998413,16.086063 127.812523,16.153952 
	C128.856659,16.241024 130.316940,17.124390 130.734253,18.052860 
	C135.223450,28.040836 139.542404,38.105335 144.112366,48.619141 
	C141.001160,48.619141 138.289200,48.619141 135.162796,48.619141 
	C134.075912,46.410755 132.809174,43.836914 131.402924,40.979614 
	C129.299927,40.979614 126.948936,41.218639 124.664734,40.929665 
	C119.963249,40.334885 116.629822,41.345806 115.815437,46.726879 
	C115.721085,47.350243 113.898300,47.712009 112.820564,47.796631 
M121.219963,34.511074 
	C120.436592,35.404842 119.653229,36.298611 118.376122,37.755707 
	C122.742493,37.755707 126.205788,37.755707 130.105530,37.755707 
	C128.441910,33.892796 126.946976,30.421564 125.452049,26.950331 
	C125.008408,26.864393 124.564766,26.778454 124.121124,26.692516 
	C123.228134,29.041901 122.335144,31.391285 121.219963,34.511074 
z"/>
<path fill="#F4F4F4" opacity="1.000000" stroke="none" 
	d="
M262.858459,48.998127 
	C261.652710,47.755836 260.239441,46.527996 260.215118,45.273232 
	C260.028839,35.662479 260.112823,26.046480 260.112823,16.204687 
	C262.632294,16.204687 265.056885,16.204687 267.769989,16.204687 
	C267.769989,26.912340 267.769989,37.496361 267.769989,48.721893 
	C266.430542,48.805157 264.862396,48.902630 262.858459,48.998127 
z"/>
<path fill="#FEFEFE" opacity="1.000000" stroke="none" 
	d="
M220.996918,28.017159 
	C220.996918,35.145157 220.996918,41.776909 220.996918,48.686520 
	C218.255386,48.686520 215.868866,48.686520 213.240601,48.686520 
	C213.240601,37.964149 213.240601,27.361881 213.240601,16.382542 
	C215.563965,16.382542 217.954483,16.382542 220.996918,16.382542 
	C220.996918,19.984655 220.996918,23.752785 220.996918,28.017159 
z"/>
<path fill="#EBEBEB" opacity="1.000000" stroke="none" 
	d="
M224.727997,60.401215 
	C227.156876,63.461002 229.394196,66.222855 231.755707,69.138016 
	C234.683289,65.403488 230.252670,59.605820 235.792206,55.615978 
	C235.792206,63.475567 235.792206,69.931198 235.792206,77.208900 
	C228.793182,74.962448 227.399368,67.061264 221.333130,63.633011 
	C221.333130,68.438736 221.333130,72.619118 221.333130,76.799500 
	C220.919205,76.938438 220.505295,77.077385 220.091370,77.216331 
	C219.547592,75.876846 218.625244,74.562515 218.534241,73.192955 
	C218.303345,69.718285 218.271744,66.207207 218.504852,62.733837 
	C218.637482,60.757988 219.446808,58.827557 219.951401,56.876671 
	C221.479736,57.952206 223.008072,59.027744 224.727997,60.401215 
z"/>
<path fill="#F7F7F7" opacity="1.000000" stroke="none" 
	d="
M136.993317,58.849663 
	C141.024734,63.180061 141.234787,67.909027 138.486481,72.270264 
	C134.359055,78.820015 127.612396,76.766579 121.254913,76.802696 
	C121.254913,70.084602 121.254913,63.691902 121.254913,56.066990 
	C126.581169,56.955349 131.614639,57.794876 136.993317,58.849663 
M135.765076,70.090378 
	C137.704956,67.387215 137.700607,64.311234 135.101608,62.603092 
	C132.402298,60.829048 128.917206,60.250660 125.249680,58.964970 
	C125.249680,64.932602 125.249680,69.333107 125.249680,75.433983 
	C129.173325,73.585663 132.230972,72.145294 135.765076,70.090378 
z"/>
<path fill="#F2F2F2" opacity="1.000000" stroke="none" 
	d="
M181.896484,76.492889 
	C177.969131,76.770004 174.355453,76.770004 170.514145,76.770004 
	C170.514145,70.256874 170.514145,63.879631 170.514145,57.563046 
	C179.988342,55.396236 185.982651,57.167366 188.195679,62.649784 
	C190.580963,68.558937 188.833450,72.519608 181.896484,76.492889 
M173.029800,68.400238 
	C173.029800,70.180481 173.029800,71.960732 173.029800,73.672394 
	C178.190659,74.621948 182.309601,73.455460 184.686996,69.363747 
	C185.589203,67.810974 185.339554,64.735535 184.360779,63.108604 
	C181.770340,58.802753 177.391449,59.963367 173.029800,60.243168 
	C173.029800,62.876087 173.029800,65.168968 173.029800,68.400238 
z"/>
<path fill="#F6F6F6" opacity="1.000000" stroke="none" 
	d="
M204.745087,72.015747 
	C201.153778,72.069405 197.551208,71.043610 196.568314,75.824219 
	C196.440567,76.445541 194.546402,76.703690 193.470459,77.130058 
	C193.128967,76.799744 192.787491,76.469429 192.446014,76.139122 
	C195.225052,70.141457 197.887741,64.083160 200.939758,58.227783 
	C201.295685,57.544926 204.879669,57.446350 205.148590,57.984940 
	C208.105560,63.906910 210.701675,70.009056 213.395660,76.062340 
	C212.978378,76.426941 212.561111,76.791550 212.143829,77.156151 
	C211.123688,76.370125 210.116928,75.565926 209.080002,74.802696 
	C207.793991,73.856110 206.483002,72.943436 204.745087,72.015747 
M204.160400,68.643440 
	C205.746216,67.202248 205.746216,67.202248 202.740250,62.088459 
	C201.670120,64.340012 200.783615,66.205208 199.716431,68.450569 
	C201.471603,68.550972 202.440170,68.606384 204.160400,68.643440 
z"/>
<path fill="#F6F6F6" opacity="1.000000" stroke="none" 
	d="
M161.016571,67.961227 
	C162.174026,70.970863 163.279053,73.598595 164.384064,76.226326 
	C163.863846,76.619446 163.343613,77.012573 162.823380,77.405693 
	C161.266724,75.825066 159.710068,74.244431 157.638992,72.141449 
	C155.592621,72.141449 152.629395,72.141449 150.272141,72.141449 
	C148.462906,74.123070 146.946579,75.783875 145.430252,77.444679 
	C144.834686,77.015617 144.239120,76.586563 143.643555,76.157501 
	C146.422562,70.185143 149.102676,64.161377 152.138229,58.322403 
	C152.431747,57.757801 155.774918,57.772430 156.252319,58.486988 
	C158.136993,61.307941 159.443298,64.515297 161.016571,67.961227 
M151.857162,67.497116 
	C153.615189,67.991539 155.373215,68.485954 157.959824,69.213402 
	C156.438263,66.103569 155.415237,64.012672 153.815018,60.742050 
	C152.914032,63.547989 152.391724,65.174576 151.857162,67.497116 
z"/>
<path fill="#F6F6F6" opacity="1.000000" stroke="none" 
	d="
M267.423218,72.083069 
	C264.178314,72.031754 261.365509,72.031754 259.581512,72.031754 
	C257.441956,74.249008 255.902039,75.844849 254.362122,77.440689 
	C253.851013,77.060516 253.339920,76.680336 252.828812,76.300156 
	C255.460098,70.281052 257.951294,64.191559 260.896729,58.330303 
	C261.272736,57.582066 265.208435,57.443672 265.481750,58.004288 
	C268.377625,63.944332 270.865448,70.083305 273.465668,76.167488 
	C272.876343,76.548203 272.286987,76.928909 271.697662,77.309624 
	C270.416870,75.584541 269.136047,73.859459 267.423218,72.083069 
M264.565460,64.812767 
	C264.255188,63.937027 263.944885,63.061291 263.309113,61.266830 
	C262.171967,64.063919 261.346619,66.094086 260.342255,68.564651 
	C263.021484,68.564651 264.644135,68.564651 266.441711,68.564651 
	C265.945892,67.430679 265.489990,66.388008 264.565460,64.812767 
z"/>
<path fill="#F4F4F4" opacity="1.000000" stroke="none" 
	d="
M85.311714,70.681824 
	C83.845795,65.826782 84.587837,61.914207 88.361786,58.643845 
	C92.313667,55.219311 96.581604,56.261562 100.753281,57.595547 
	C101.589142,57.862827 101.803429,60.073898 102.791504,62.667576 
	C100.373238,61.568771 99.377205,61.147396 98.408546,60.670418 
	C95.021248,59.002468 91.991386,59.533001 89.672531,62.473740 
	C87.497780,65.231750 87.299271,68.639069 89.721565,71.004509 
	C91.875626,73.108009 94.698547,75.600433 98.386475,72.731995 
	C99.132385,72.151825 100.837746,72.805222 102.100769,72.889908 
	C101.391846,73.822731 100.869576,75.047119 99.943146,75.640160 
	C94.668091,79.016907 88.387375,76.926826 85.311714,70.681824 
z"/>
<path fill="#F9F9F9" opacity="1.000000" stroke="none" 
	d="
M245.861053,56.852196 
	C246.878342,57.745480 247.873474,58.601891 247.902481,59.489883 
	C248.060165,64.314072 248.128815,69.153915 247.875137,73.969788 
	C247.812149,75.165741 246.440353,76.292770 245.670135,77.451477 
	C245.133331,77.220139 244.596527,76.988800 244.059723,76.757454 
	C244.059723,70.476143 244.037369,64.194542 244.116699,57.914230 
	C244.121323,57.547466 244.948547,57.191101 245.861053,56.852196 
z"/>
<path fill="#F3F3F3" opacity="1.000000" stroke="none" 
	d="
M109.754227,72.367836 
	C109.761139,67.645325 109.702744,63.356422 109.837547,59.073601 
	C109.860603,58.341270 110.709129,57.634926 111.176323,56.916580 
	C111.768143,57.515579 112.858856,58.102482 112.873718,58.715469 
	C113.005539,64.152794 113.019753,69.596878 112.860336,75.032867 
	C112.838150,75.789368 111.683563,76.512650 110.160568,78.297226 
	C109.954834,75.516319 109.854477,74.159912 109.754227,72.367836 
z"/>
<path fill="#DEDEDE" opacity="1.000000" stroke="none" 
	d="
M178.040710,48.201412 
	C178.161560,48.299660 178.224991,48.386986 178.185379,48.423904 
	C178.145767,48.460827 177.785873,48.452587 177.785873,48.452587 
	C177.785873,48.452587 177.919846,48.103165 178.040710,48.201412 
z"/>
<path fill="#DEDEDE" opacity="1.000000" stroke="none" 
	d="
M178.015259,16.493183 
	C178.148575,16.567736 178.218826,16.633230 178.190674,16.672180 
	C178.162537,16.711132 177.812943,16.786915 177.812943,16.786915 
	C177.812943,16.786915 177.881927,16.418631 178.015259,16.493183 
z"/>
<path fill="#4C7351" opacity="1.000000" stroke="none" 
	d="
M49.960579,73.908852 
	C48.492729,75.037872 47.058464,75.774132 44.983139,76.839462 
	C44.983139,74.460693 45.350384,73.028175 44.903812,71.925117 
	C44.070675,69.867210 42.764519,68.000786 41.655209,66.054680 
	C39.807621,67.616570 37.817886,69.046005 36.180222,70.803505 
	C35.495213,71.538643 35.864025,73.223541 35.203873,74.022064 
	C34.349239,75.055832 32.944912,75.635162 30.825623,77.041733 
	C31.979116,70.422112 32.843319,65.462654 33.739025,60.322426 
	C43.670349,62.382450 53.196407,64.358414 63.375813,66.469902 
	C60.525036,69.262505 64.481750,74.617867 59.986675,75.893547 
	C57.935570,73.177521 56.781063,70.150169 54.715355,69.275986 
	C51.848595,68.062798 50.459820,70.795876 49.960579,73.908852 
z"/>
<path fill="#507554" opacity="1.000000" stroke="none" 
	d="
M64.229126,44.848518 
	C63.947292,42.531349 64.036766,40.277439 63.002800,38.821213 
	C61.351517,36.495567 57.090511,37.580227 56.203178,40.378132 
	C55.562012,42.399841 55.272827,44.533176 54.786667,46.803520 
	C53.271912,46.425797 51.901031,46.083950 50.558342,45.749138 
	C49.913353,42.083488 53.745144,37.169327 48.015099,35.133915 
	C44.500893,33.885609 43.817371,35.000458 41.055485,43.643810 
	C36.358337,43.100063 36.063217,40.856140 39.737949,31.454311 
	C49.019070,33.375301 58.399250,35.316799 68.357811,37.378002 
	C67.442894,41.403877 66.591713,45.149326 65.740524,48.894779 
	C65.279549,48.908310 64.818565,48.921837 64.357590,48.935368 
	C64.270515,47.713478 64.183434,46.491589 64.229126,44.848518 
z"/>
<path fill="#4D7352" opacity="1.000000" stroke="none" 
	d="
M51.955109,49.013870 
	C54.916248,49.686241 57.440166,50.373398 59.996181,50.906696 
	C65.288422,52.010895 66.072243,53.186455 64.547394,58.405499 
	C64.069061,60.042664 63.273422,61.587124 62.623028,63.174015 
	C62.151070,63.070740 61.679108,62.967468 61.207146,62.864193 
	C61.386524,61.490707 61.552391,60.115299 61.748043,58.744137 
	C62.178909,55.724606 61.945671,52.781631 58.371292,52.112560 
	C55.006660,51.482750 53.152035,53.262676 52.929985,56.837074 
	C52.843208,58.233879 52.031559,59.585648 51.486641,61.138695 
	C49.931293,60.614738 48.581371,60.159985 47.390800,59.758911 
	C47.615429,57.950115 47.809895,56.499989 47.973011,55.046349 
	C48.299915,52.133110 47.664070,49.026630 44.399483,49.297623 
	C42.503597,49.455006 40.746746,52.286709 39.099205,54.073486 
	C38.058262,55.202408 37.334320,56.623631 36.468193,57.913742 
	C35.979694,56.327564 35.050350,54.725910 35.105370,53.158813 
	C35.189220,50.770569 35.954281,48.406239 36.471893,45.823040 
	C41.636810,46.898495 46.584610,47.928741 51.955109,49.013870 
z"/>
<path fill="#4D7352" opacity="1.000000" stroke="none" 
	d="
M60.198570,29.460846 
	C59.360332,26.609344 58.735817,22.265003 57.333961,21.997723 
	C51.419098,20.869987 53.150150,27.357861 50.190956,30.165300 
	C49.052803,30.112286 47.425564,30.036488 45.394199,29.941868 
	C46.308804,25.962269 47.192097,22.118923 48.213009,17.676781 
	C54.165539,18.966825 59.844048,20.197481 66.183800,21.571445 
	C65.727287,24.610821 65.429184,27.832184 64.658730,30.936302 
	C64.440773,31.814432 62.842564,32.349979 61.877380,33.042648 
	C61.269825,31.976242 60.662273,30.909834 60.198570,29.460846 
z"/>
<path fill="#4B7250" opacity="1.000000" stroke="none" 
	d="
M54.849174,61.010410 
	C55.474670,58.511688 56.071922,56.378262 56.669178,54.244839 
	C57.275688,54.294514 57.882202,54.344185 58.488716,54.393860 
	C58.382454,56.430904 58.505981,58.525383 58.020485,60.467632 
	C57.886551,61.003441 55.937263,61.085468 54.849174,61.010410 
z"/>
<path fill="#4C7351" opacity="1.000000" stroke="none" 
	d="
M155.073013,32.638741 
	C154.765182,27.699053 154.765182,23.120592 154.765182,17.073338 
	C158.111450,18.323380 162.164215,18.613333 163.113037,20.480539 
	C164.513351,23.236298 164.747284,27.603792 163.463150,30.338974 
	C162.635330,32.102184 158.199600,32.171501 155.073013,32.638741 
z"/>
<path fill="#4A724F" opacity="1.000000" stroke="none" 
	d="
M198.388504,23.745684 
	C199.118835,28.310396 200.445892,32.712906 199.874390,36.853363 
	C198.793182,44.686588 194.402603,47.458187 186.142975,46.665173 
	C186.142975,37.324966 186.142975,27.953505 186.142975,18.301325 
	C191.434799,17.151846 195.269913,19.116776 198.388504,23.745684 
z"/>
<path fill="#527456" opacity="1.000000" stroke="none" 
	d="
M100.263657,19.487244 
	C103.738869,22.974972 104.121223,26.367079 102.310524,30.772520 
	C100.221214,35.855801 96.122482,34.724670 92.361481,35.252575 
	C92.361481,29.708551 92.361481,24.122532 92.361481,17.500582 
	C95.151520,18.176702 97.525398,18.751972 100.263657,19.487244 
z"/>
<path fill="#557759" opacity="1.000000" stroke="none" 
	d="
M121.331055,34.125870 
	C122.335144,31.391285 123.228134,29.041901 124.121124,26.692516 
	C124.564766,26.778454 125.008408,26.864393 125.452049,26.950331 
	C126.946976,30.421564 128.441910,33.892796 130.105530,37.755707 
	C126.205788,37.755707 122.742493,37.755707 118.376122,37.755707 
	C119.653229,36.298611 120.436592,35.404842 121.331055,34.125870 
z"/>
<path fill="#4D7351" opacity="1.000000" stroke="none" 
	d="
M135.526855,70.397659 
	C132.230972,72.145294 129.173325,73.585663 125.249680,75.433983 
	C125.249680,69.333107 125.249680,64.932602 125.249680,58.964970 
	C128.917206,60.250660 132.402298,60.829048 135.101608,62.603092 
	C137.700607,64.311234 137.704956,67.387215 135.526855,70.397659 
z"/>
<path fill="#4A714F" opacity="1.000000" stroke="none" 
	d="
M173.029800,67.931046 
	C173.029800,65.168968 173.029800,62.876087 173.029800,60.243168 
	C177.391449,59.963367 181.770340,58.802753 184.360779,63.108604 
	C185.339554,64.735535 185.589203,67.810974 184.686996,69.363747 
	C182.309601,73.455460 178.190659,74.621948 173.029800,73.672394 
	C173.029800,71.960732 173.029800,70.180481 173.029800,67.931046 
z"/>
<path fill="#69826C" opacity="1.000000" stroke="none" 
	d="
M203.784576,68.652618 
	C202.440170,68.606384 201.471603,68.550972 199.716431,68.450569 
	C200.783615,66.205208 201.670120,64.340012 202.740250,62.088459 
	C205.746216,67.202248 205.746216,67.202248 203.784576,68.652618 
z"/>
<path fill="#68816B" opacity="1.000000" stroke="none" 
	d="
M151.863297,67.149139 
	C152.391724,65.174576 152.914032,63.547989 153.815018,60.742050 
	C155.415237,64.012672 156.438263,66.103569 157.959824,69.213402 
	C155.373215,68.485954 153.615189,67.991539 151.863297,67.149139 
z"/>
<path fill="#668169" opacity="1.000000" stroke="none" 
	d="
M264.799774,65.079056 
	C265.489990,66.388008 265.945892,67.430679 266.441711,68.564651 
	C264.644135,68.564651 263.021484,68.564651 260.342255,68.564651 
	C261.346619,66.094086 262.171967,64.063919 263.309113,61.266830 
	C263.944885,63.061291 264.255188,63.937027 264.799774,65.079056 
z"/>
</svg>